<svg width="13" height="13" viewBox="0 0 13 13" fill="none" xmlns="http://www.w3.org/2000/svg">
<g clip-path="url(#clip0_1_179)">
<path d="M10.102 2.67622C7.96947 0.543108 4.49846 0.543108 2.36593 2.67622C1.33292 3.70991 0.763885 5.08396 0.763885 6.54529C0.763885 8.00663 1.33292 9.38067 2.36593 10.414C3.43241 11.4807 4.83319 12.0139 6.23395 12.0139C7.63472 12.0139 9.03552 11.4807 10.102 10.414C12.2345 8.28084 12.2345 4.80974 10.102 2.67622ZM9.50287 9.81466C7.70041 11.6176 4.7675 11.6176 2.96504 9.81466C2.09221 8.9416 1.61129 7.78031 1.61129 6.54529C1.61129 5.31027 2.09221 4.14899 2.96504 3.27549C4.7675 1.47254 7.70041 1.47297 9.50287 3.27549C11.3049 5.07844 11.3049 8.01214 9.50287 9.81466Z" fill="white"/>
<path d="M7.93776 7.6818L6.80112 6.54529L7.93776 5.40877C8.09433 5.25199 8.09433 4.99751 7.93816 4.84031C7.78118 4.68271 7.52704 4.68312 7.37005 4.8399L6.23263 5.97722L5.0952 4.8399C4.93822 4.68312 4.68408 4.68271 4.5271 4.84031C4.37052 4.99749 4.37052 5.25197 4.5275 5.40877L5.66414 6.54529L4.5275 7.6818C4.37052 7.83858 4.37052 8.09306 4.5271 8.25026C4.60539 8.32905 4.70857 8.36805 4.81136 8.36805C4.91415 8.36805 5.01692 8.32864 5.09522 8.25065L6.23265 7.11333L7.37007 8.25065C7.44837 8.32905 7.55114 8.36805 7.65394 8.36805C7.75673 8.36805 7.8599 8.32864 7.9382 8.25026C8.09474 8.09306 8.09474 7.83858 7.93776 7.6818Z" fill="white"/>
</g>
<defs>
<clipPath id="clip0_1_179">
<rect width="12.5448" height="12.5448" fill="white" transform="translate(0.215042 0.0179138)"/>
</clipPath>
</defs>
</svg>
